inDegrees=no
num_controls=7
num_derivatives=13
num_iterations=166
num_multipliers=7
num_parameters=0
num_slacks=7
num_states=26
objective=5.705898
objective_accelerations=0.359342
objective_balance=0.020922
objective_effort=0.385871
objective_height=4.844614
objective_ligament=0.095149
solver_duration=1413.267392
status=Solve_Succeeded
success=true
DataType=double
version=3
OpenSimVersion=4.4-2022-07-23-0e9fedc
endheader
time	/jointset/ground_pelvis/pelvis_tilt/value	/jointset/ground_pelvis/pelvis_tx/value	/jointset/ground_pelvis/pelvis_ty/value	/jointset/hip_r/hip_flexion_r/value	/jointset/hip_r/hip_adduction_r/value	/jointset/hip_r/hip_rotation_r/value	/jointset/back/lumbar_extension/value	/jointset/patellofemoral_r/patellar_flexion_r/value	/jointset/knee_r/knee_flexion_r/value	/jointset/knee_r/knee_adduction_r/value	/jointset/knee_r/knee_rotation_r/value	/jointset/ankle_r/ankle_angle_r/value	/jointset/subtalar_r/subtalar_angle_r/value	/jointset/ground_pelvis/pelvis_tilt/speed	/jointset/ground_pelvis/pelvis_tx/speed	/jointset/ground_pelvis/pelvis_ty/speed	/jointset/hip_r/hip_flexion_r/speed	/jointset/hip_r/hip_adduction_r/speed	/jointset/hip_r/hip_rotation_r/speed	/jointset/back/lumbar_extension/speed	/jointset/patellofemoral_r/patellar_flexion_r/speed	/jointset/knee_r/knee_flexion_r/speed	/jointset/knee_r/knee_adduction_r/speed	/jointset/knee_r/knee_rotation_r/speed	/jointset/ankle_r/ankle_angle_r/speed	/jointset/subtalar_r/subtalar_angle_r/speed	/forceset/tau_hip_flexion_r	/forceset/tau_hip_adduction_r	/forceset/tau_hip_rotation_r	/forceset/tau_knee_flexion_r	/forceset/tau_ankle_angle_r	/forceset/tau_subtalar_angle_r	/forceset/tau_lumbar_extension	lambda_cid13_p0	lambda_cid14_p0	lambda_cid14_p1	lambda_cid14_p2	lambda_cid14_p3	lambda_cid14_p4	lambda_cid14_p5	/jointset/ground_pelvis/pelvis_tilt/accel	/jointset/ground_pelvis/pelvis_tx/accel	/jointset/ground_pelvis/pelvis_ty/accel	/jointset/hip_r/hip_flexion_r/accel	/jointset/hip_r/hip_adduction_r/accel	/jointset/hip_r/hip_rotation_r/accel	/jointset/back/lumbar_extension/accel	/jointset/patellofemoral_r/patellar_flexion_r/accel	/jointset/knee_r/knee_flexion_r/accel	/jointset/knee_r/knee_adduction_r/accel	/jointset/knee_r/knee_rotation_r/accel	/jointset/ankle_r/ankle_angle_r/accel	/jointset/subtalar_r/subtalar_angle_r/accel	gamma_cid13_p0	gamma_cid14_p0	gamma_cid14_p1	gamma_cid14_p2	gamma_cid14_p3	gamma_cid14_p4	gamma_cid14_p5
1	-0.3516382554235993	-0.04925367480797863	0.7435348461523623	1.291254267488232	-0.2270000310548352	-0.07986208274837354	-0.7853899734849955	1.047597665638396	1.04759766563836	-0.03060929337536723	0.1745294418974911	0.1945233264473386	0.09536783880696546	0.07593169605479246	0.005929963969722328	0.01410756468632979	-0.09951210383788835	2.874322585100274e-05	-0.004088057980302744	-0.0002585098878857183	-0.01328774362820651	-0.01328774362820472	0.0001485044870061206	1.63576274151362e-05	0.01048420297173613	0.003592697279446474	-0.3795402045361938	0.006662087386742751	0.01880430126398375	-0.2735337882077006	0.02549958845018727	0.003219389346268459	0.3709765761241579	-4.181998555577451	-39.91830893819375	-3.859996137251803	-0.9401583253602573	2.416717117676673	-729.5180656467384	66.56843907360819	1.982348010949986	0.3325710324737165	1.061903810284033	-4.587422171864739	0.06809170822081247	-0.643790781355547	-0.07714441324133475	-2.957791566573958	-2.957791566573968	0.2137500133517527	0.008423248800552712	-0.4417913020376225	-0.04188721677034072	6.042956112963785e-10	5.689351600164674e-10	9.477012454007442e-10	5.207653955963776e-10	-8.759973454318817e-10	-7.608882232400695e-09	2.123469121520333e-10
1.01	-0.3507805022590682	-0.04917763864025071	0.7437290667428053	1.290030068781918	-0.2269962489436519	-0.07993491681101547	-0.7853943883214143	1.047316491251699	1.047316491251657	-0.03059696219067077	0.1745297100088521	0.1946060497866942	0.09540178032268938	0.09563396023123594	0.00929383490617452	0.02475582876614379	-0.1454063251366787	0.0007282073012183112	-0.01047978538556477	-0.0005151088885979309	-0.04300517335869983	-0.0430051733586995	0.002333671486656821	3.130780237422293e-05	0.00606355238917755	0.003197314904125191	-0.3806758566636104	0.006861675229848616	0.01880675804915268	-0.2734891633113914	0.02510312466860878	0.003228642427234609	0.372314204382063	-4.192481176834244	-40.1140474285429	-3.881831378590388	-0.9462931982007362	2.345094632978292	-730.6976387472024	66.59014374113177	1.966419293098376	0.3407808060606767	1.069175883901783	-4.602225460773075	0.07095358971471763	-0.6370188972845301	0.01648462909637612	-2.987424818511687	-2.987424818511796	0.2232916492700797	-0.002862599487651109	-0.441739082276448	-0.03810679408766558	9.711605509669257e-10	-1.94057997996794e-09	3.131264038096656e-09	4.443216386467459e-10	4.355637766684363e-09	-1.555792934768951e-08	1.057325484100954e-09
1.02	-0.3497252757183612	-0.04906746662679205	0.7440303476094596	1.288344567192211	-0.2269854562252106	-0.08007169918315656	-0.7853980886928487	1.046736401339261	1.046736401339214	-0.03056230101479077	0.1745299489217005	0.1946446591910419	0.09543181940542533	0.1154263712919521	0.01275713311587159	0.03551961992866993	-0.1917726805109495	0.001430864677394129	-0.01687771987775177	-0.0001156169860102582	-0.07307084877818487	-0.07307084877818555	0.004614502726247298	1.051792408674421e-05	0.001661415970160095	0.002812210681815227	-0.3818115087911361	0.007061263072927791	0.0188092148343886	-0.2734445384150857	0.02470666088703333	0.003237895508164155	0.3736518326398651	-4.214102833565502	-40.31747052717478	-3.903210147924519	-0.9545591255424349	2.264763261969938	-732.0038341396228	66.62520024483446	2.000377387804324	0.3524564871228995	1.085009226826506	-4.681848986960924	0.06873036838252665	-0.6450321987405809	0.05407376741993027	-3.027440704372298	-3.027440704372219	0.2328828613396442	0.00127523815121285	-0.4380884693290721	-0.03983158616795044	6.390703174054228e-10	-6.149930244585026e-10	6.2403563192803e-09	1.51912467508735e-09	1.449066622191553e-09	-1.357608642488352e-08	2.080936028153626e-09
1.03	-0.3484724215172327	-0.04892218248288868	0.7444395477964765	1.286194377536016	-0.226967664594637	-0.0802724053703192	-0.7853938276619666	1.045854636281053	1.045854636281034	-0.03050440678126834	0.1745298859698971	0.1946394933679258	0.095458048518185	0.1350831827993243	0.01631453531958649	0.04630987473776061	-0.2382086283947561	0.00212386840568092	-0.02325696805713348	0.001147926502710456	-0.1032679900797163	-0.1032679900797231	0.006973622951514061	-2.036028943277901e-05	-0.00267614081612299	0.002434636505680948	-0.3820500668350162	0.007012700116242805	0.01881523166738235	-0.273360610114845	0.02480016352412565	0.003291521088353937	0.374319166317969	-4.247039580351389	-40.29813184426427	-3.870140834897025	-0.9671343897278872	2.018448642160441	-732.3704073189459	66.70961124223329	1.939140081458496	0.3596077096475235	1.074449911594682	-4.615974583732775	0.06904766487741375	-0.6333898061146136	0.1895101370675782	-3.013724983517264	-3.013724983518165	0.2388201935560928	-0.004856704378085541	-0.4288233877673867	-0.03656484947556382	2.99847888198691e-10	7.497276259029339e-10	9.358892778917906e-09	2.605675127787045e-09	-1.540547443287108e-09	-1.149290788944386e-08	3.106369347431847e-09
